<svg xmlns="http://www.w3.org/2000/svg" width="513" height="513" viewBox="0 0 513 513" version="1.1">
	<path d="M 233.500 57.165 C 222.197 58.442, 204.474 62.558, 192.617 66.659 C 137.194 85.828, 92.345 129.724, 71.705 185 C 63.577 206.770, 59.812 228.451, 59.812 253.500 C 59.812 286.062, 66.242 313.538, 80.521 342 C 101.202 383.222, 137.462 417.323, 179.497 435.086 C 252.953 466.124, 335.930 450.992, 393.216 396.112 C 415.153 375.096, 430.931 351.500, 441.714 323.583 C 445.163 314.653, 451.277 293, 450.349 293 C 448.689 293, 441 298.438, 441 299.612 C 441 303.192, 432.297 326.639, 427.074 337.128 C 399.709 392.092, 349.810 429.361, 288.500 440.628 C 274.325 443.233, 239.675 443.233, 225.500 440.628 C 195.994 435.206, 170.656 424.520, 145.764 407 C 134.281 398.919, 113.532 378.446, 104.718 366.500 C 86.254 341.478, 73.267 309.739, 68.866 278.882 C 66.825 264.573, 67.311 236.090, 69.838 222 C 78.014 176.401, 100.915 136.812, 136.068 107.508 C 160.067 87.503, 190.117 73.276, 222 66.826 C 232.189 64.765, 236.236 64.505, 257.500 64.541 C 279.618 64.579, 282.482 64.792, 294.021 67.251 C 347.422 78.630, 392.062 110.248, 419.977 156.461 C 438.417 186.990, 448.459 226.513, 446.584 261.179 L 445.952 272.858 449.836 271.332 L 453.720 269.807 454.351 261.591 C 455.010 253.020, 453.827 232.965, 451.974 221.295 C 443.140 165.664, 407.844 113.805, 358.550 84.030 C 334.906 69.749, 306.175 60.032, 278.789 57.055 C 267.431 55.821, 244.916 55.876, 233.500 57.165 M 234 70.025 C 154.533 81.034, 91.835 139.296, 76.038 216.813 C 65.016 270.901, 78.865 326.469, 114.363 370.576 C 131.769 392.204, 158.589 412.316, 184.703 423.324 C 275.196 461.469, 378.315 423.304, 422.359 335.366 C 427.555 324.991, 435.359 304.555, 434.776 302.848 C 434.624 302.404, 431.800 303.741, 428.500 305.820 C 406.207 319.866, 374.301 338.345, 367.969 340.879 C 357.755 344.965, 348.300 346.412, 341.302 344.959 C 337.101 344.087, 335.961 343.460, 336.222 342.167 C 336.504 340.770, 337.636 340.554, 343.216 340.834 C 352.095 341.279, 359.830 339.583, 369.500 335.071 C 377.616 331.284, 504.406 255.073, 503.724 254.391 C 503.520 254.187, 475.711 265.549, 441.927 279.639 C 377.657 306.444, 368.310 310.004, 362.212 309.994 C 352.352 309.980, 345.705 304.882, 344.426 296.355 C 343.636 291.087, 345.098 281.515, 347.396 276.909 C 349.196 273.300, 349.402 273.408, 338.026 272.028 C 327.475 270.748, 309.312 270.685, 308.546 271.926 C 307.851 273.050, 314.083 273.747, 332.224 274.575 L 345.948 275.202 343.627 278.351 C 339.145 284.435, 333.646 294.368, 331.009 301.148 L 328.344 307.995 326.025 305.527 C 321.346 300.546, 313.774 299.888, 308.048 303.966 C 305.285 305.933, 305.249 305.933, 303.494 303.994 C 300.751 300.962, 295.910 300.495, 291.351 302.821 C 289.200 303.918, 282.660 309.266, 276.817 314.705 C 270.974 320.144, 264.354 325.869, 262.107 327.426 C 258.492 329.931, 257.798 330.099, 256.092 328.879 C 255.032 328.120, 248.687 323.225, 241.994 318 C 222.806 303.022, 221.212 301.997, 217.141 302.022 C 215.133 302.034, 212.395 302.894, 211.036 303.938 C 208.606 305.805, 208.530 305.802, 205.536 303.666 C 203.355 302.110, 201.084 301.514, 197.473 301.549 L 192.446 301.597 194.320 296.049 C 195.351 292.997, 196.446 288.067, 196.753 285.093 L 197.312 279.685 192.429 280.355 C 182.497 281.716, 168.033 290.587, 160.798 299.754 L 157.052 304.500 172.519 304.775 C 187.637 305.045, 187.958 305.095, 186.752 307.025 C 185.553 308.946, 184.235 309, 138.637 309 L 91.756 309 93.250 311.250 L 94.743 313.500 138.872 313.760 C 163.142 313.904, 183 314.376, 183 314.810 C 183 317.786, 180.104 318, 139.800 318 C 116.801 318, 99 318.386, 99 318.885 C 99 319.372, 100.211 320.564, 101.692 321.534 C 104.180 323.164, 107.162 323.256, 141.165 322.751 L 177.945 322.205 176.473 325.053 C 175.663 326.619, 175 328.489, 175 329.208 C 175 330.779, 167.531 335.426, 160.640 338.142 C 157.897 339.223, 152.693 340.370, 149.076 340.691 C 145.459 341.011, 141.938 341.717, 141.250 342.259 C 140.468 342.876, 139.532 342.895, 138.750 342.309 C 138.063 341.794, 135.700 341.265, 133.500 341.134 C 128.355 340.828, 119.667 338.376, 114.530 335.779 C 107.916 332.435, 95.693 323.382, 92.802 319.686 C 84.807 309.465, 79 293.851, 79 282.574 L 79 275 83.318 275 C 92.304 275, 103.562 279.690, 114.259 287.889 L 120.741 292.857 121.355 287.632 C 122.550 277.467, 129.508 261.143, 134.364 257.113 C 135.264 256.366, 136 255.205, 136 254.533 C 136 253.861, 131.731 251.103, 126.512 248.405 C 121.294 245.707, 117.023 243.275, 117.022 243 C 117.020 242.725, 121.740 240.525, 127.510 238.111 C 133.279 235.697, 138 233.598, 138 233.447 C 138 233.295, 135.746 231.785, 132.992 230.090 L 127.984 227.009 132.039 223.346 C 137.629 218.295, 144.717 207.218, 153.694 189.500 C 163.002 171.129, 166.864 165.395, 175.662 156.887 C 183.530 149.278, 188.542 145.750, 198.846 140.571 C 216.070 131.913, 235.517 127.678, 258 127.689 C 295.465 127.708, 327.561 140.799, 346.599 163.826 C 350.115 168.078, 355.175 176.546, 360.543 187.162 C 369.839 205.542, 379.597 220.903, 384.087 224.222 C 385.689 225.407, 387 226.629, 386.999 226.938 C 386.998 227.247, 384.748 228.763, 381.999 230.308 C 379.250 231.852, 377 233.237, 377 233.385 C 377 233.533, 381.725 235.589, 387.500 237.953 C 393.275 240.317, 398 242.545, 398 242.904 C 398 243.263, 393.500 245.939, 388 248.852 C 382.500 251.764, 378 254.594, 378 255.139 C 378 255.684, 380.446 258.576, 383.435 261.565 C 386.424 264.554, 388.389 267, 387.802 267 C 386.643 267, 352 300.933, 352 302.067 C 352 303.769, 358.409 305.205, 364.240 304.811 C 369.516 304.455, 376.003 302.096, 405.500 289.811 L 440.500 275.233 441.274 266.366 C 444.122 233.763, 435.160 193.421, 418.530 163.987 C 391.600 116.321, 347.077 83.694, 293.533 72.386 C 283.440 70.254, 278.195 69.786, 261 69.485 C 249.725 69.287, 237.575 69.530, 234 70.025 M 161.523 120.248 C 157.466 125.982, 154 144.669, 154 160.814 L 154 169.180 157.849 164.340 C 161.701 159.495, 168.925 152.463, 174.432 148.197 L 177.364 145.926 171.432 139.864 L 165.500 133.801 169 134.464 C 170.925 134.828, 175.240 136.478, 178.588 138.130 L 184.676 141.135 190.588 137.570 C 193.840 135.609, 197.175 133.988, 198 133.967 C 200.136 133.912, 194.762 129.614, 187.500 125.569 C 181.030 121.965, 173.980 119.527, 167.308 118.586 C 163.724 118.081, 162.886 118.321, 161.523 120.248 M 345.500 121.042 C 338.947 122.051, 333.016 124.260, 325.342 128.551 C 318.889 132.160, 316.823 134.108, 318.762 134.754 C 319.376 134.959, 322.488 136.810, 325.677 138.868 L 331.477 142.609 336.988 139.775 C 340.020 138.217, 344.300 136.692, 346.500 136.386 L 350.500 135.832 344.722 141.166 C 341.545 144.100, 338.957 146.800, 338.972 147.167 C 338.988 147.534, 341.970 150.684, 345.600 154.167 C 349.230 157.650, 354.180 163.132, 356.600 166.349 L 361 172.198 360.980 159.849 C 360.954 143.501, 358.444 127.064, 355.259 122.385 C 354.071 120.639, 350.931 120.207, 345.500 121.042 M 162 199.308 C 162 201.745, 162.696 207.732, 163.548 212.613 C 165.588 224.312, 170.397 234.213, 177.973 242.312 C 187.522 252.519, 198.254 256.607, 213.409 255.807 C 228.123 255.031, 237.953 248.477, 247.090 233.351 C 252.433 224.505, 254.128 223, 258.747 223 C 262.293 223, 265.500 226.229, 270.523 234.860 C 275.340 243.136, 280.696 248.233, 288.737 252.191 C 300.506 257.985, 316.400 257.208, 329.339 250.204 C 339.343 244.790, 349.442 230.147, 352.418 216.743 C 354.059 209.352, 355.020 197.651, 354.108 196.174 C 353.349 194.947, 308.699 197.257, 297.500 199.103 C 288.145 200.644, 277.254 204.276, 269.255 208.521 C 260.872 212.969, 256.262 213.083, 248.560 209.032 C 233.785 201.260, 221.558 198.527, 195 197.061 C 184.275 196.469, 172.463 195.736, 168.750 195.432 L 162 194.879 162 199.308 M 169.015 205.750 C 169.049 209.857, 172.214 220.480, 175.113 226.224 C 179.998 235.901, 194.945 250.388, 198.059 248.463 C 198.701 248.067, 197.122 246.417, 194.252 244.484 C 184.143 237.676, 174.172 223.004, 172.516 212.500 C 171.395 205.392, 170.980 204, 169.981 204 C 169.441 204, 169.007 204.787, 169.015 205.750 M 271.555 220.912 C 270.535 222.561, 275.871 231.679, 281.402 237.741 C 287.083 243.966, 294.539 249.403, 296.086 248.447 C 296.690 248.073, 294.980 246.321, 292.155 244.419 C 286.074 240.323, 279.571 232.970, 275.365 225.435 C 273.595 222.263, 271.936 220.294, 271.555 220.912 M 248.643 247.028 C 245.412 247.996, 241.997 250.763, 242.006 252.405 C 242.010 253.007, 243.845 255.637, 246.084 258.250 C 248.949 261.593, 250.905 263, 252.686 263 C 254.945 263, 255.144 263.296, 254.539 265.750 C 252.430 274.306, 246.726 278.246, 236.534 278.187 C 230.235 278.151, 225.607 276.582, 221.617 273.129 C 219.828 271.582, 219.771 271.625, 220.471 274 C 222.365 280.425, 226.097 283.245, 234.277 284.435 C 242.195 285.588, 249.846 283.454, 254.220 278.874 L 257.940 274.979 259.461 277.300 C 260.298 278.577, 262.899 280.707, 265.241 282.034 C 270.745 285.151, 282.412 285.422, 288.294 282.570 C 292.051 280.748, 295 276.705, 295 273.375 C 295 271.857, 294.732 271.903, 292.750 273.759 C 289.395 276.902, 285.209 278.196, 278.306 278.224 C 271.076 278.254, 266.706 276.171, 263.253 271.048 C 260.483 266.936, 260.255 263, 262.788 263 C 263.771 263, 266.735 260.807, 269.375 258.127 C 273.752 253.683, 274.059 253.067, 272.857 251.143 C 272.132 249.983, 269.834 248.350, 267.749 247.516 C 263.684 245.890, 253.325 245.625, 248.643 247.028 M 136.703 261.197 C 129.959 270.181, 126.172 281.500, 125.309 295.250 L 124.698 305 139.980 305 L 155.262 305 154.759 294.750 C 154.416 287.769, 153.507 282.272, 151.909 277.513 C 149.590 270.605, 142.584 258.940, 140.341 258.251 C 139.704 258.055, 138.067 259.380, 136.703 261.197 M 170 260.636 C 170 261.677, 209.799 267.534, 210.706 266.627 C 212.369 264.964, 194.356 261.296, 179.872 260.346 C 173.940 259.958, 170 260.073, 170 260.636 M 331 260.695 C 319.624 261.913, 305.073 265.407, 306.294 266.627 C 307.116 267.450, 347 261.727, 347 260.787 C 347 260.013, 337.859 259.960, 331 260.695 M 177 272.190 C 172.875 272.702, 169.050 273.591, 168.500 274.166 C 167.806 274.891, 172.391 275.016, 183.500 274.576 C 202.692 273.814, 209.191 273.119, 208.442 271.906 C 207.737 270.765, 186.962 270.952, 177 272.190 M 84.245 286.599 C 84.540 290.395, 85.793 296.087, 87.029 299.250 L 89.278 305 106.139 305 C 117.088 305, 123 304.637, 123 303.966 C 123 303.397, 119.924 299.855, 116.164 296.095 C 108.646 288.577, 96.153 281.571, 88.105 280.360 L 83.710 279.698 84.245 286.599 M 194.370 306.449 C 189.675 308.479, 189.578 309.680, 194.060 310.281 C 199.339 310.989, 201.641 312.788, 199.723 314.705 C 198.684 315.744, 197.690 315.833, 195.673 315.066 C 192.179 313.737, 189.035 314.982, 185.614 319.047 C 179.753 326.013, 177.709 332.720, 180.092 337.172 C 181.157 339.161, 181.265 339.136, 184.342 336.157 C 188.381 332.249, 194.264 329.777, 197.558 330.604 C 201.269 331.535, 200.280 334.336, 195.989 335.050 C 191.511 335.794, 189.197 337.096, 185.564 340.913 C 183.155 343.444, 182.551 345.063, 182.199 349.929 C 181.813 355.263, 182.029 356.119, 184.339 358.430 C 188.867 362.958, 200.778 361.320, 204.486 355.661 C 206.058 353.263, 206.274 353.216, 209.532 354.578 C 216.110 357.326, 221.967 355.664, 226.086 349.880 C 228.163 346.962, 228.425 346.860, 229.623 348.500 C 230.812 350.126, 231.822 349.595, 241.998 342.002 C 248.092 337.454, 252.915 333.246, 252.717 332.650 C 252.298 331.395, 224.836 309.775, 220.763 307.495 C 218.339 306.138, 217.624 306.130, 214.513 307.430 C 212.581 308.237, 211 309.323, 211 309.842 C 211 312.287, 207.494 311.906, 204.582 309.143 C 200.631 305.396, 198.253 304.769, 194.370 306.449 M 314 305.716 C 311.605 306.576, 307.940 310.250, 306.265 313.470 L 304.721 316.440 302.417 311.220 C 300.278 306.374, 299.865 306, 296.647 306 C 293.664 306, 291.805 307.274, 283.340 315.115 C 277.928 320.128, 264.500 330.930, 253.500 339.119 C 242.500 347.308, 230.912 356.044, 227.750 358.532 C 223.266 362.059, 221.999 362.664, 221.997 361.278 C 221.992 358.490, 208.559 358.766, 204.463 361.638 C 202.833 362.780, 200.308 364.116, 198.850 364.607 L 196.200 365.500 198.250 370.965 C 201.130 378.643, 208.945 386.312, 216.034 388.417 C 237.872 394.903, 264.982 379.999, 282.029 352.137 L 285.311 346.774 288.405 350.302 C 293.566 356.185, 297.875 357.332, 304.468 354.578 C 307.726 353.216, 307.942 353.263, 309.514 355.661 C 313.222 361.320, 325.133 362.958, 329.661 358.430 C 331.971 356.119, 332.187 355.263, 331.801 349.929 C 331.449 345.063, 330.845 343.444, 328.436 340.913 C 324.803 337.096, 322.489 335.794, 318.011 335.050 C 313.720 334.336, 312.731 331.535, 316.442 330.604 C 319.736 329.777, 325.619 332.249, 329.658 336.157 C 332.735 339.136, 332.843 339.161, 333.908 337.172 C 336.291 332.720, 334.247 326.013, 328.386 319.047 C 324.965 314.982, 321.821 313.737, 318.327 315.066 C 316.310 315.833, 315.316 315.744, 314.277 314.705 C 312.361 312.790, 314.469 311.162, 320.143 310.174 L 324.500 309.415 322 307.812 C 318.846 305.789, 315.928 305.024, 314 305.716 M 109 326.487 C 109 328.508, 125.962 336, 130.538 336 C 132.561 336, 132.998 335.509, 132.986 333.250 C 132.950 326.008, 132.937 326, 120.383 326 C 114.123 326, 109 326.219, 109 326.487 M 133 326.850 C 133 327.872, 138.485 335.564, 139.787 336.368 C 140.759 336.969, 147 328.939, 147 327.087 C 147 326.408, 144.372 326, 140 326 C 136.150 326, 133 326.382, 133 326.850 M 148.667 326.667 C 148.300 327.033, 148 329.341, 148 331.794 L 148 336.256 152.198 335.584 C 156.991 334.818, 168.116 329.771, 169.990 327.512 C 171.097 326.178, 169.953 326, 160.289 326 C 154.263 326, 149.033 326.300, 148.667 326.667 M 279.072 363.997 C 276.206 367.851, 271.193 373.353, 267.931 376.224 C 264.669 379.096, 262 381.820, 262 382.279 C 262 384.773, 278.900 389.971, 287.068 389.988 C 300.292 390.016, 311.356 382.678, 315.750 370.965 L 317.800 365.500 315.150 364.607 C 313.692 364.116, 311.167 362.780, 309.537 361.638 C 307.209 360.006, 305.013 359.554, 299.290 359.530 C 292.759 359.503, 292.006 359.699, 292.003 361.424 C 292 363.309, 291.954 363.308, 289.750 361.377 C 284.251 356.558, 284.683 356.452, 279.072 363.997" stroke="none" fill="black" fill-rule="evenodd"/>
</svg>