<?xml version="1.0" encoding="utf-8"?>
<!-- Generator: Adobe Illustrator 16.0.0, SVG Export Plug-In . SVG Version: 6.00 Build 0)  -->
<!DOCTYPE svg PUBLIC "-//W3C//DTD SVG 1.1//EN" "http://www.w3.org/Graphics/SVG/1.1/DTD/svg11.dtd">
<svg version="1.1" id="圖層_1" xmlns="http://www.w3.org/2000/svg" xmlns:xlink="http://www.w3.org/1999/xlink" x="0px" y="0px"
	 width="512px" height="512px" viewBox="0 0 512 512" enable-background="new 0 0 512 512" xml:space="preserve">
<g>
	<g>
		<defs>
			<rect id="SVGID_1_" width="511.99" height="512"/>
		</defs>
		<clipPath id="SVGID_2_">
			<use xlink:href="#SVGID_1_"  overflow="visible"/>
		</clipPath>
		<path clip-path="url(#SVGID_2_)" fill="none" stroke="#000000" stroke-width="7.5415" stroke-miterlimit="10" d="M256.06,446.471
			c-106.791,0-193.675-86.889-193.675-193.69S149.269,59.092,256.06,59.092c106.798,0,193.685,86.888,193.685,193.689
			S362.858,446.471,256.06,446.471z"/>
		<path clip-path="url(#SVGID_2_)" d="M256.06,437.209c-101.685,0-184.411-82.736-184.411-184.428
			c0-101.693,82.726-184.425,184.411-184.425c101.69,0,184.423,82.732,184.423,184.425
			C440.483,354.473,357.75,437.209,256.06,437.209z"/>
		<g clip-path="url(#SVGID_2_)">
			<g>
				<path fill="#FFFFFF" d="M376.254,253.94l22.056-11.7l-22.502-9.451l11.248-6.751c0,0-8.999,0-30.151-45.004
					c-20.184-42.94-66.14-53.49-97.681-54.369h-4.816c-31.541,0.879-77.502,11.429-97.681,54.369
					c-21.151,45.004-30.154,45.004-30.154,45.004l11.251,6.751l-22.502,9.451l22.053,11.7c0,0-6.751,9.451-12.152,11.7
					c7.092,2.467,22.838,21.61,36.394,34.732c6.235,6.034,12.009,10.799,16.261,12.073c-4.949-11.251-1.826-13.051-1.826-13.051
					s9.027,22.053,43.678,28.352c-8.548-8.55-8.099-13.05-8.099-13.05s11.845,19.352,43.724,22.053c0.501,0.041,2.421,0.041,2.917,0
					c31.884-2.701,43.727-22.053,43.727-22.053s0.452,4.5-8.102,13.05c34.654-6.299,43.684-28.352,43.684-28.352
					s3.122,1.8-1.827,13.051c3.771-1.13,8.75-5.045,14.175-10.114c13.993-13.08,31.021-34.094,38.479-36.691
					C383.006,263.391,376.254,253.94,376.254,253.94z"/>
				<path fill="none" d="M376.152,253.94l22.05-11.7l-22.502-9.451l11.254-6.751c0,0-9.005,0-30.156-45.004
					c-20.18-42.941-66.141-53.49-97.682-54.37H254.3c-31.541,0.88-77.497,11.429-97.679,54.37
					c-21.154,45.004-30.154,45.004-30.154,45.004l11.253,6.751l-22.504,9.451l22.053,11.7c0,0-6.751,9.451-12.152,11.7
					c10.35,3.602,39.153,42.757,52.655,46.808c-4.952-11.251-1.824-13.053-1.824-13.053s9.024,22.053,43.678,28.354
					c-8.551-8.553-8.101-13.053-8.101-13.053s11.845,19.352,43.722,22.053c0.501,0.041,2.42,0.041,2.921,0
					c31.88-2.701,43.727-22.053,43.727-22.053s0.447,4.5-8.101,13.053c34.653-6.302,43.678-28.354,43.678-28.354
					s3.122,1.802-1.826,13.053c13.502-4.051,42.303-43.206,52.657-46.808C382.903,263.391,376.152,253.94,376.152,253.94z"/>
				<g>
					<g>
						
							<path fill-rule="evenodd" clip-rule="evenodd" fill="#FFFFFF" stroke="#FFFFFF" stroke-width="10.0553" stroke-miterlimit="10" d="
							M82.976,279.411c-0.029,0.486-0.064,0.923-0.079,1.365c-0.118,3.279,0.277,6.511,1.006,9.702
							c1.1,4.823,2.882,9.402,5.082,13.822c0.079,0.167,0.179,0.201,0.346,0.201c10.917-0.024,21.832-0.044,32.741-0.063
							c0.083-0.006,0.157-0.016,0.27-0.025c-0.116-0.191-0.207-0.349-0.305-0.495c-1.605-2.494-3.461-4.801-5.469-6.976
							c-5.023-5.45-10.954-9.67-17.612-12.887c-4.573-2.209-9.336-3.849-14.403-4.487C84.042,279.504,83.523,279.465,82.976,279.411
							z"/>
						
							<path fill-rule="evenodd" clip-rule="evenodd" fill="#FFFFFF" stroke="#FFFFFF" stroke-width="10.0553" stroke-miterlimit="10" d="
							M156.285,304.281c0.02,0.029,0.044,0.059,0.069,0.088c0.11-0.005,0.221-0.005,0.334-0.005
							c5.042-0.005,10.08-0.015,15.122-0.024c5.784-0.01,11.572-0.024,17.361-0.034c0.167,0.005,0.285-0.01,0.378-0.196
							c1.829-3.736,3.393-7.582,4.507-11.601c1.073-3.853,1.728-7.766,1.593-11.776c-0.018-0.496-0.062-0.997-0.091-1.503
							c-0.155,0-0.275-0.017-0.396,0c-1.512,0.233-3.037,0.402-4.529,0.717c-3.137,0.658-6.147,1.724-9.066,3.024
							c-9.262,4.13-17.044,10.151-23.177,18.261C157.645,302.213,156.982,303.264,156.285,304.281z"/>
						
							<path fill-rule="evenodd" clip-rule="evenodd" fill="#FFFFFF" stroke="#FFFFFF" stroke-width="10.0553" stroke-miterlimit="10" d="
							M91.347,308.758c0.079,0.152,0.123,0.279,0.197,0.388c0.842,1.242,1.689,2.484,2.523,3.731c0.118,0.177,0.25,0.24,0.461,0.24
							c29.798-0.068,59.591-0.127,89.383-0.177c0.221,0,0.369-0.073,0.511-0.23c1.065-1.188,1.93-2.519,2.671-3.928
							c0.032-0.063,0.054-0.128,0.088-0.211C155.239,308.635,123.315,308.694,91.347,308.758z"/>
						
							<path fill-rule="evenodd" clip-rule="evenodd" fill="#FFFFFF" stroke="#FFFFFF" stroke-width="10.0553" stroke-miterlimit="10" d="
							M97.961,317.699c1.245,1.414,2.499,2.721,3.967,3.806c0.206,0.157,0.412,0.221,0.675,0.221
							c24.213-0.054,48.421-0.099,72.629-0.147c0.159,0.005,0.324,0.02,0.481-0.005c0.127-0.01,0.268-0.034,0.373-0.098
							c1.62-0.938,3.02-2.131,4.181-3.614c0.076-0.088,0.14-0.187,0.236-0.319C152.976,317.596,125.5,317.645,97.961,317.699z"/>
						
							<path fill-rule="evenodd" clip-rule="evenodd" fill="#FFFFFF" stroke="#FFFFFF" stroke-width="10.0553" stroke-miterlimit="10" d="
							M147.083,335.251c0.138,0,0.27,0.01,0.403-0.005c1.915-0.167,3.8-0.506,5.659-0.991c6.206-1.626,11.815-4.469,16.973-8.249
							c0.049-0.029,0.11-0.054,0.167-0.083c-0.017-0.025-0.04-0.05-0.062-0.074c-0.103,0-0.206,0-0.307,0
							c-7.284,0.015-14.565,0.024-21.852,0.039c-0.054,0-0.123-0.02-0.164,0.005c-0.083,0.05-0.194,0.108-0.214,0.187
							c-0.064,0.217-0.088,0.442-0.123,0.668c-0.295,1.792-0.432,3.604-0.477,5.416
							C147.059,333.184,147.081,334.206,147.083,335.251z"/>
						
							<path fill-rule="evenodd" clip-rule="evenodd" fill="#FFFFFF" stroke="#FFFFFF" stroke-width="10.0553" stroke-miterlimit="10" d="
							M108.208,325.967c0.133,0.098,0.187,0.147,0.243,0.191c1.708,1.237,3.479,2.381,5.325,3.402
							c5.021,2.789,10.301,4.831,16.031,5.598c0.51,0.063,1.026,0.103,1.544,0.156c0.01-0.132,0.022-0.221,0.027-0.299
							c0.104-2.912,0.035-5.809-0.312-8.695c-0.052-0.397-0.057-0.397-0.449-0.397c-7.328,0.015-14.658,0.024-21.986,0.039
							C108.517,325.967,108.409,325.967,108.208,325.967z"/>
						
							<path fill-rule="evenodd" clip-rule="evenodd" fill="#FFFFFF" stroke="#FFFFFF" stroke-width="10.0553" stroke-miterlimit="10" d="
							M139.307,335.963c1.866-1.698,6.55-8.43,6.992-10.055c-4.704,0.015-9.4,0.024-14.143,0.029
							C134.186,329.561,136.312,333.072,139.307,335.963z"/>
						
							<path fill-rule="evenodd" clip-rule="evenodd" fill="#FFFFFF" stroke="#FFFFFF" stroke-width="10.0553" stroke-miterlimit="10" d="
							M139.199,257.25c0.491,0.508,0.992,1.009,1.468,1.529c2.126,2.332,3.881,4.93,5.411,7.682
							c3.452,6.196,5.73,12.813,7.011,19.779c0.683,3.707,1.036,7.45,0.933,11.229c-0.057,2.048-0.231,4.096-0.354,6.139
							c-0.015,0.245-0.04,0.496-0.059,0.746c-9.564,0.024-19.104,0.039-28.69,0.059c-0.071-0.485-0.157-0.972-0.207-1.463
							c-0.329-3.408-0.341-6.821-0.12-10.229c0.393-6.02,1.677-11.853,3.724-17.513c1.711-4.729,3.894-9.206,6.82-13.304
							c1.168-1.638,2.452-3.169,3.92-4.551c0.034-0.032,0.059-0.071,0.086-0.105C139.164,257.248,139.181,257.248,139.199,257.25z"
							/>
						
							<path fill-rule="evenodd" clip-rule="evenodd" fill="#FFFFFF" stroke="#FFFFFF" stroke-width="10.0553" stroke-miterlimit="10" d="
							M82.976,279.411c0.547,0.055,1.065,0.094,1.579,0.157c5.067,0.639,9.83,2.278,14.403,4.487
							c6.658,3.217,12.589,7.437,17.612,12.887c2.008,2.175,3.864,4.481,5.469,6.976c0.098,0.146,0.189,0.304,0.305,0.495
							c-0.113,0.01-0.187,0.02-0.27,0.025c-10.91,0.02-21.824,0.039-32.741,0.063c-0.167,0-0.268-0.034-0.346-0.201
							c-2.2-4.42-3.982-8.999-5.082-13.822c-0.729-3.191-1.124-6.423-1.006-9.702C82.912,280.333,82.947,279.897,82.976,279.411z"/>
						
							<path fill-rule="evenodd" clip-rule="evenodd" fill="#FFFFFF" stroke="#FFFFFF" stroke-width="10.0553" stroke-miterlimit="10" d="
							M156.285,304.281c0.697-1.017,1.36-2.067,2.106-3.05c6.132-8.109,13.915-14.131,23.177-18.261
							c2.919-1.301,5.929-2.366,9.066-3.024c1.493-0.314,3.017-0.483,4.529-0.717c0.121-0.017,0.241,0,0.396,0
							c0.029,0.506,0.073,1.007,0.091,1.503c0.135,4.011-0.521,7.924-1.593,11.776c-1.115,4.019-2.678,7.864-4.507,11.601
							c-0.093,0.187-0.211,0.201-0.378,0.196c-5.789,0.01-11.578,0.024-17.361,0.034c-5.042,0.01-10.08,0.02-15.122,0.024
							c-0.113,0-0.224,0-0.334,0.005C156.329,304.339,156.304,304.31,156.285,304.281z"/>
						
							<path fill-rule="evenodd" clip-rule="evenodd" fill="#FFFFFF" stroke="#FFFFFF" stroke-width="10.0553" stroke-miterlimit="10" d="
							M91.347,308.758c31.968-0.064,63.892-0.123,95.835-0.187c-0.034,0.083-0.056,0.147-0.088,0.211
							c-0.741,1.409-1.605,2.739-2.671,3.928c-0.142,0.157-0.29,0.23-0.511,0.23c-29.792,0.05-59.585,0.108-89.383,0.177
							c-0.211,0-0.344-0.063-0.461-0.24c-0.834-1.247-1.682-2.489-2.523-3.731C91.47,309.038,91.426,308.911,91.347,308.758z"/>
						
							<path fill-rule="evenodd" clip-rule="evenodd" fill="#FFFFFF" stroke="#FFFFFF" stroke-width="10.0553" stroke-miterlimit="10" d="
							M97.961,317.699c27.539-0.054,55.015-0.103,82.542-0.157c-0.096,0.133-0.16,0.231-0.236,0.319
							c-1.161,1.483-2.561,2.676-4.181,3.614c-0.105,0.063-0.246,0.088-0.373,0.098c-0.157,0.024-0.322,0.01-0.481,0.005
							c-24.208,0.049-48.416,0.094-72.629,0.147c-0.263,0-0.469-0.063-0.675-0.221C100.46,320.419,99.206,319.113,97.961,317.699z"
							/>
						
							<path fill-rule="evenodd" clip-rule="evenodd" fill="#FFFFFF" stroke="#FFFFFF" stroke-width="10.0553" stroke-miterlimit="10" d="
							M147.083,335.251c-0.002-1.046-0.024-2.067,0.005-3.088c0.044-1.812,0.182-3.624,0.477-5.416
							c0.034-0.226,0.059-0.451,0.123-0.668c0.02-0.078,0.13-0.137,0.214-0.187c0.042-0.024,0.11-0.005,0.164-0.005
							c7.287-0.015,14.568-0.024,21.852-0.039c0.101,0,0.204,0,0.307,0c0.022,0.024,0.044,0.049,0.062,0.074
							c-0.057,0.029-0.118,0.054-0.167,0.083c-5.158,3.78-10.767,6.623-16.973,8.249c-1.858,0.485-3.744,0.824-5.659,0.991
							C147.354,335.261,147.221,335.251,147.083,335.251z"/>
						
							<path fill-rule="evenodd" clip-rule="evenodd" fill="#FFFFFF" stroke="#FFFFFF" stroke-width="10.0553" stroke-miterlimit="10" d="
							M108.208,325.967c0.202,0,0.31,0,0.422-0.005c7.328-0.015,14.658-0.024,21.986-0.039c0.393,0,0.397,0,0.449,0.397
							c0.346,2.887,0.415,5.783,0.312,8.695c-0.005,0.078-0.017,0.167-0.027,0.299c-0.518-0.054-1.034-0.093-1.544-0.156
							c-5.73-0.767-11.01-2.809-16.031-5.598c-1.846-1.021-3.616-2.165-5.325-3.402C108.394,326.115,108.34,326.065,108.208,325.967
							z"/>
						
							<path fill-rule="evenodd" clip-rule="evenodd" fill="#FFFFFF" stroke="#FFFFFF" stroke-width="10.0553" stroke-miterlimit="10" d="
							M139.307,335.963c-2.995-2.892-5.121-6.402-7.151-10.025c4.743-0.005,9.439-0.015,14.143-0.029
							C145.856,327.534,141.172,334.265,139.307,335.963z"/>
					</g>
					<g>
						<path fill-rule="evenodd" clip-rule="evenodd" fill="#FFFFFF" d="M82.976,279.411c-0.029,0.486-0.064,0.923-0.079,1.365
							c-0.118,3.279,0.277,6.511,1.006,9.702c1.1,4.823,2.882,9.402,5.082,13.822c0.079,0.167,0.179,0.201,0.346,0.201
							c10.917-0.024,21.832-0.044,32.741-0.063c0.083-0.006,0.157-0.016,0.27-0.025c-0.116-0.191-0.207-0.349-0.305-0.495
							c-1.605-2.494-3.461-4.801-5.469-6.976c-5.023-5.45-10.954-9.67-17.612-12.887c-4.573-2.209-9.336-3.849-14.403-4.487
							C84.042,279.504,83.523,279.465,82.976,279.411z"/>
						<path fill-rule="evenodd" clip-rule="evenodd" fill="#FFFFFF" d="M156.285,304.281c0.02,0.029,0.044,0.059,0.069,0.088
							c0.11-0.005,0.221-0.005,0.334-0.005c5.042-0.005,10.08-0.015,15.122-0.024c5.784-0.01,11.572-0.024,17.361-0.034
							c0.167,0.005,0.285-0.01,0.378-0.196c1.829-3.736,3.393-7.582,4.507-11.601c1.073-3.853,1.728-7.766,1.593-11.776
							c-0.018-0.496-0.062-0.997-0.091-1.503c-0.155,0-0.275-0.017-0.396,0c-1.512,0.233-3.037,0.402-4.529,0.717
							c-3.137,0.658-6.147,1.724-9.066,3.024c-9.262,4.13-17.044,10.151-23.177,18.261
							C157.645,302.213,156.982,303.264,156.285,304.281z"/>
						<path fill-rule="evenodd" clip-rule="evenodd" fill="#FFFFFF" d="M91.347,308.758c0.079,0.152,0.123,0.279,0.197,0.388
							c0.842,1.242,1.689,2.484,2.523,3.731c0.118,0.177,0.25,0.24,0.461,0.24c29.798-0.068,59.591-0.127,89.383-0.177
							c0.221,0,0.369-0.073,0.511-0.23c1.065-1.188,1.93-2.519,2.671-3.928c0.032-0.063,0.054-0.128,0.088-0.211
							C155.239,308.635,123.315,308.694,91.347,308.758z"/>
						<path fill-rule="evenodd" clip-rule="evenodd" fill="#FFFFFF" d="M97.961,317.699c1.245,1.414,2.499,2.721,3.967,3.806
							c0.206,0.157,0.412,0.221,0.675,0.221c24.213-0.054,48.421-0.099,72.629-0.147c0.159,0.005,0.324,0.02,0.481-0.005
							c0.127-0.01,0.268-0.034,0.373-0.098c1.62-0.938,3.02-2.131,4.181-3.614c0.076-0.088,0.14-0.187,0.236-0.319
							C152.976,317.596,125.5,317.645,97.961,317.699z"/>
						<path fill-rule="evenodd" clip-rule="evenodd" fill="#FFFFFF" d="M147.083,335.251c0.138,0,0.27,0.01,0.403-0.005
							c1.915-0.167,3.8-0.506,5.659-0.991c6.206-1.626,11.815-4.469,16.973-8.249c0.049-0.029,0.11-0.054,0.167-0.083
							c-0.017-0.025-0.04-0.05-0.062-0.074c-0.103,0-0.206,0-0.307,0c-7.284,0.015-14.565,0.024-21.852,0.039
							c-0.054,0-0.123-0.02-0.164,0.005c-0.083,0.05-0.194,0.108-0.214,0.187c-0.064,0.217-0.088,0.442-0.123,0.668
							c-0.295,1.792-0.432,3.604-0.477,5.416C147.059,333.184,147.081,334.206,147.083,335.251z"/>
						<path fill-rule="evenodd" clip-rule="evenodd" fill="#FFFFFF" d="M108.208,325.967c0.133,0.098,0.187,0.147,0.243,0.191
							c1.708,1.237,3.479,2.381,5.325,3.402c5.021,2.789,10.301,4.831,16.031,5.598c0.51,0.063,1.026,0.103,1.544,0.156
							c0.01-0.132,0.022-0.221,0.027-0.299c0.104-2.912,0.035-5.809-0.312-8.695c-0.052-0.397-0.057-0.397-0.449-0.397
							c-7.328,0.015-14.658,0.024-21.986,0.039C108.517,325.967,108.409,325.967,108.208,325.967z"/>
						<path fill-rule="evenodd" clip-rule="evenodd" fill="#FFFFFF" d="M139.307,335.963c1.866-1.698,6.55-8.43,6.992-10.055
							c-4.704,0.015-9.4,0.024-14.143,0.029C134.186,329.561,136.312,333.072,139.307,335.963z"/>
						<path fill-rule="evenodd" clip-rule="evenodd" d="M139.199,257.25c0.491,0.508,0.992,1.009,1.468,1.529
							c2.126,2.332,3.881,4.93,5.411,7.682c3.452,6.196,5.73,12.813,7.011,19.779c0.683,3.707,1.036,7.45,0.933,11.229
							c-0.057,2.048-0.231,4.096-0.354,6.139c-0.015,0.245-0.04,0.496-0.059,0.746c-9.564,0.024-19.104,0.039-28.69,0.059
							c-0.071-0.485-0.157-0.972-0.207-1.463c-0.329-3.408-0.341-6.821-0.12-10.229c0.393-6.02,1.677-11.853,3.724-17.513
							c1.711-4.729,3.894-9.206,6.82-13.304c1.168-1.638,2.452-3.169,3.92-4.551c0.034-0.032,0.059-0.071,0.086-0.105
							C139.164,257.248,139.181,257.248,139.199,257.25z"/>
						<path fill-rule="evenodd" clip-rule="evenodd" d="M82.976,279.411c0.547,0.055,1.065,0.094,1.579,0.157
							c5.067,0.639,9.83,2.278,14.403,4.487c6.658,3.217,12.589,7.437,17.612,12.887c2.008,2.175,3.864,4.481,5.469,6.976
							c0.098,0.146,0.189,0.304,0.305,0.495c-0.113,0.01-0.187,0.02-0.27,0.025c-10.91,0.02-21.824,0.039-32.741,0.063
							c-0.167,0-0.268-0.034-0.346-0.201c-2.2-4.42-3.982-8.999-5.082-13.822c-0.729-3.191-1.124-6.423-1.006-9.702
							C82.912,280.333,82.947,279.897,82.976,279.411z"/>
						<path fill-rule="evenodd" clip-rule="evenodd" d="M156.285,304.281c0.697-1.017,1.36-2.067,2.106-3.05
							c6.132-8.109,13.915-14.131,23.177-18.261c2.919-1.301,5.929-2.366,9.066-3.024c1.493-0.314,3.017-0.483,4.529-0.717
							c0.121-0.017,0.241,0,0.396,0c0.029,0.506,0.073,1.007,0.091,1.503c0.135,4.011-0.521,7.924-1.593,11.776
							c-1.115,4.019-2.678,7.864-4.507,11.601c-0.093,0.187-0.211,0.201-0.378,0.196c-5.789,0.01-11.578,0.024-17.361,0.034
							c-5.042,0.01-10.08,0.02-15.122,0.024c-0.113,0-0.224,0-0.334,0.005C156.329,304.339,156.304,304.31,156.285,304.281z"/>
						<path fill-rule="evenodd" clip-rule="evenodd" d="M91.347,308.758c31.968-0.064,63.892-0.123,95.835-0.187
							c-0.034,0.083-0.056,0.147-0.088,0.211c-0.741,1.409-1.605,2.739-2.671,3.928c-0.142,0.157-0.29,0.23-0.511,0.23
							c-29.792,0.05-59.585,0.108-89.383,0.177c-0.211,0-0.344-0.063-0.461-0.24c-0.834-1.247-1.682-2.489-2.523-3.731
							C91.47,309.038,91.426,308.911,91.347,308.758z"/>
						<path fill-rule="evenodd" clip-rule="evenodd" d="M97.961,317.699c27.539-0.054,55.015-0.103,82.542-0.157
							c-0.096,0.133-0.16,0.231-0.236,0.319c-1.161,1.483-2.561,2.676-4.181,3.614c-0.105,0.063-0.246,0.088-0.373,0.098
							c-0.157,0.024-0.322,0.01-0.481,0.005c-24.208,0.049-48.416,0.094-72.629,0.147c-0.263,0-0.469-0.063-0.675-0.221
							C100.46,320.419,99.206,319.113,97.961,317.699z"/>
						<path fill-rule="evenodd" clip-rule="evenodd" d="M147.083,335.251c-0.002-1.046-0.024-2.067,0.005-3.088
							c0.044-1.812,0.182-3.624,0.477-5.416c0.034-0.226,0.059-0.451,0.123-0.668c0.02-0.078,0.13-0.137,0.214-0.187
							c0.042-0.024,0.11-0.005,0.164-0.005c7.287-0.015,14.568-0.024,21.852-0.039c0.101,0,0.204,0,0.307,0
							c0.022,0.024,0.044,0.049,0.062,0.074c-0.057,0.029-0.118,0.054-0.167,0.083c-5.158,3.78-10.767,6.623-16.973,8.249
							c-1.858,0.485-3.744,0.824-5.659,0.991C147.354,335.261,147.221,335.251,147.083,335.251z"/>
						<path fill-rule="evenodd" clip-rule="evenodd" d="M108.208,325.967c0.202,0,0.31,0,0.422-0.005
							c7.328-0.015,14.658-0.024,21.986-0.039c0.393,0,0.397,0,0.449,0.397c0.346,2.887,0.415,5.783,0.312,8.695
							c-0.005,0.078-0.017,0.167-0.027,0.299c-0.518-0.054-1.034-0.093-1.544-0.156c-5.73-0.767-11.01-2.809-16.031-5.598
							c-1.846-1.021-3.616-2.165-5.325-3.402C108.394,326.115,108.34,326.065,108.208,325.967z"/>
						<path fill-rule="evenodd" clip-rule="evenodd" d="M139.307,335.963c-2.995-2.892-5.121-6.402-7.151-10.025
							c4.743-0.005,9.439-0.015,14.143-0.029C145.856,327.534,141.172,334.265,139.307,335.963z"/>
					</g>
				</g>
				<g>
					<g>
						
							<path fill-rule="evenodd" clip-rule="evenodd" fill="#FFFFFF" stroke="#FFFFFF" stroke-width="10.0553" stroke-miterlimit="10" d="
							M346.816,272.983c-0.045,0.187-0.074,0.378-0.133,0.562c-0.393,1.188-0.806,2.369-1.179,3.561
							c-1.158,3.724-2.092,7.494-2.484,11.388c-0.216,2.153-0.305,4.309-0.047,6.462c0.317,2.676,1.002,5.243,2.504,7.536
							c1.446,2.207,3.332,3.928,5.696,5.121c2.769,1.395,5.727,1.977,8.801,2.082c3.27,0.11,6.456-0.381,9.596-1.252
							c3.128-0.869,6.154-2.023,9.154-3.258c5.541-2.288,11.079-4.589,16.618-6.887c7.666-3.187,15.325-6.372,22.987-9.566
							c7.453-3.105,14.898-6.221,22.347-9.321c10.053-4.186,20.106-8.359,30.156-12.545c9.182-3.819,18.368-7.649,27.549-11.474
							c1.602-0.667,3.197-1.338,4.8-2.003c0.233-0.098,0.472-0.191,0.729-0.297c0.063,0.216-0.105,0.236-0.197,0.292
							c-1.479,0.906-2.96,1.809-4.443,2.705c-2.477,1.505-4.953,3.005-7.436,4.502c-2.845,1.724-5.69,3.441-8.535,5.163
							c-2.676,1.617-5.345,3.242-8.019,4.857c-2.091,1.268-4.186,2.524-6.276,3.791c-4.889,2.955-9.773,5.916-14.656,8.872
							c-4.497,2.725-8.997,5.442-13.495,8.165c-4.838,2.926-9.677,5.857-14.513,8.783c-4.571,2.765-9.143,5.526-13.716,8.293
							c-2.987,1.812-5.973,3.628-8.961,5.438c-4.399,2.664-8.806,5.317-13.21,7.981c-2.697,1.63-5.408,3.242-8.084,4.907
							c-2.631,1.64-5.285,3.23-8.022,4.687c-5.283,2.811-10.735,5.212-16.504,6.852c-3.373,0.96-6.811,1.562-10.318,1.711
							c-2.567,0.113-5.111-0.105-7.601-0.764c-3.213-0.847-6.105-2.308-8.489-4.672c-2.248-2.229-3.748-4.907-4.684-7.917
							c-1.176-3.788-1.306-7.646-0.751-11.55c0.385-2.706,1.048-5.35,1.846-7.962c1.286-4.225,2.995-8.28,4.939-12.237
							c1.174-2.401,2.423-4.763,3.783-7.065c1.281-2.175,2.565-4.355,3.91-6.496c1.176-1.875,2.453-3.689,3.803-5.444
							c0.644-0.835,1.279-1.67,1.92-2.502c0.154-0.199,0.326-0.386,0.488-0.577C346.732,272.928,346.774,272.956,346.816,272.983z"
							/>
					</g>
					<path fill-rule="evenodd" clip-rule="evenodd" d="M346.816,272.983c-0.045,0.187-0.074,0.378-0.133,0.562
						c-0.393,1.188-0.806,2.369-1.179,3.561c-1.158,3.724-2.092,7.494-2.484,11.388c-0.216,2.153-0.305,4.309-0.047,6.462
						c0.317,2.676,1.002,5.243,2.504,7.536c1.446,2.207,3.332,3.928,5.696,5.121c2.769,1.395,5.727,1.977,8.801,2.082
						c3.27,0.11,6.456-0.381,9.596-1.252c3.128-0.869,6.154-2.023,9.154-3.258c5.541-2.288,11.079-4.589,16.618-6.887
						c7.666-3.187,15.325-6.372,22.987-9.566c7.453-3.105,14.898-6.221,22.347-9.321c10.053-4.186,20.106-8.359,30.156-12.545
						c9.182-3.819,18.368-7.649,27.549-11.474c1.602-0.667,3.197-1.338,4.8-2.003c0.233-0.098,0.472-0.191,0.729-0.297
						c0.063,0.216-0.105,0.236-0.197,0.292c-1.479,0.906-2.96,1.809-4.443,2.705c-2.477,1.505-4.953,3.005-7.436,4.502
						c-2.845,1.724-5.69,3.441-8.535,5.163c-2.676,1.617-5.345,3.242-8.019,4.857c-2.091,1.268-4.186,2.524-6.276,3.791
						c-4.889,2.955-9.773,5.916-14.656,8.872c-4.497,2.725-8.997,5.442-13.495,8.165c-4.838,2.926-9.677,5.857-14.513,8.783
						c-4.571,2.765-9.143,5.526-13.716,8.293c-2.987,1.812-5.973,3.628-8.961,5.438c-4.399,2.664-8.806,5.317-13.21,7.981
						c-2.697,1.63-5.408,3.242-8.084,4.907c-2.631,1.64-5.285,3.23-8.022,4.687c-5.283,2.811-10.735,5.212-16.504,6.852
						c-3.373,0.96-6.811,1.562-10.318,1.711c-2.567,0.113-5.111-0.105-7.601-0.764c-3.213-0.847-6.105-2.308-8.489-4.672
						c-2.248-2.229-3.748-4.907-4.684-7.917c-1.176-3.788-1.306-7.646-0.751-11.55c0.385-2.706,1.048-5.35,1.846-7.962
						c1.286-4.225,2.995-8.28,4.939-12.237c1.174-2.401,2.423-4.763,3.783-7.065c1.281-2.175,2.565-4.355,3.91-6.496
						c1.176-1.875,2.453-3.689,3.803-5.444c0.644-0.835,1.279-1.67,1.92-2.502c0.154-0.199,0.326-0.386,0.488-0.577
						C346.732,272.928,346.774,272.956,346.816,272.983z"/>
				</g>
				<g>
					<path d="M293.829,271.804c0,0-3.722,5.958-15.265,6.331s-19.364-5.587-18.991-16.384c0.373-10.799,12.657-9.682,12.657-9.682
						s-0.388-5.921-13.988-6.633c-0.039-0.024-0.059-0.044-0.103-0.069c-0.467,0-0.879,0.022-1.326,0.035
						c-0.442-0.012-0.854-0.035-1.326-0.035c-0.039,0.025-0.059,0.044-0.098,0.069c-13.6,0.712-13.993,6.633-13.993,6.633
						s12.29-1.117,12.663,9.682c0.373,10.797-7.448,16.757-18.991,16.384s-15.267-6.331-15.267-6.331s-1.117,11.916,17.128,11.916
						c12.083,0.317,17.553-5.005,19.885-11.201c2.337,6.196,7.806,11.519,19.884,11.201
						C294.948,283.72,293.829,271.804,293.829,271.804z"/>
					<path stroke="#000000" stroke-width="1.56" stroke-linecap="round" stroke-linejoin="round" stroke-miterlimit="10" d="
						M254.059,261.751c5.514,0,9.146,0,9.146,0l9.024-9.682h-28.3L254.059,261.751z"/>
					<path stroke="#000000" stroke-width="1.56" stroke-linecap="round" stroke-linejoin="round" stroke-miterlimit="10" d="
						M259.573,261.751c-5.514,0-9.152,0-9.152,0l-9.024-9.682h28.3L259.573,261.751z"/>
				</g>
			</g>
			<g>
				<path fill="#FFFFFF" stroke="#000000" stroke-width="4.0221" stroke-miterlimit="10" d="M289.11,358.109
					c0,0-33.028-27.45-44.664-34.138c-11.632-6.688-29.216-33.08-36.293-13.315c-7.682-14.358-22.33-6.979-23.263,3.722
					c-5.582,7.443-14.42,17.214-4.649,27.448c-2.327,6.979-3.776,20.005,8.813,20.936c12.586,0.931,16.915-7.443,16.915-7.443
					c10.559,5.119,17.997,0.467,21.495-5.582c10.006,18.144,29.547,38.149,52.344,41.407c22.796,3.255,37.227-9.771,40.246-32.104
					c3.02-22.33-7.154-29.309-15.093-27.912C297.02,332.522,288.177,342.756,289.11,358.109z"/>
				<path fill="#FFFFFF" stroke="#00D800" stroke-width="1.2569" stroke-miterlimit="10" d="M180.24,341.826
					c4.849-6.513,13.222-12.56,17.876-8.838"/>
				<g>
					<path fill="#FFFFFF" stroke="#000000" stroke-width="4.0221" stroke-miterlimit="10" d="M222.99,358.109
						c18.583-15.441,40.614-28.241,57.646-45.214c2.661-2.649,5.214-5.455,8.332-7.542c7.374-4.935,12.559-2.804,14.979,5.303
						c7.679-14.358,22.33-6.979,23.258,3.722c5.588,7.443,14.425,17.214,4.654,27.448c2.327,6.979,3.776,20.005-8.813,20.936
						s-16.915-7.443-16.915-7.443c-10.561,5.119-17.994,0.467-21.49-5.582c-10.006,18.144-29.547,38.149-52.343,41.407
						c-22.801,3.255-37.231-9.771-40.251-32.104c-3.02-22.33,7.154-29.309,15.093-27.912
						C215.08,332.522,223.925,342.756,222.99,358.109z"/>
					<path fill="#FFFFFF" stroke="#000000" stroke-width="4.0221" stroke-miterlimit="10" d="M229.309,352.917
						c-0.187-0.31,24.839-18.152,26.837-20.561c-8.813-8.042-19.075-14.798-28.295-22.369c-2.932-2.405-7.198-6.459-11.298-6.49
						c-2.288-0.018-10.298,3.611-8.4,7.158c-7.682-14.358-22.33-6.979-23.263,3.722c-5.582,7.443-14.42,17.214-4.649,27.448
						c-2.327,6.979-3.776,20.005,8.813,20.936c12.586,0.931,16.915-7.443,16.915-7.443c10.559,5.119,17.997,0.467,21.495-5.582
						C228.042,350.792,228.666,351.852,229.309,352.917"/>
					<path fill="#FFFFFF" stroke="#000000" stroke-width="4.0221" stroke-miterlimit="10" d="M180.24,341.826
						c4.849-6.513,13.222-12.56,17.876-8.838"/>
					<path fill="#FFFFFF" stroke="#000000" stroke-width="4.0221" stroke-miterlimit="10" d="M184.889,314.377
						c4.851-4.186,11.366-3.258,13.227,0"/>
					<path fill="#FFFFFF" stroke="#000000" stroke-width="4.0221" stroke-miterlimit="10" d="M331.86,341.826
						c-4.851-6.513-13.222-12.56-17.876-8.838"/>
					<path fill="#FFFFFF" stroke="#000000" stroke-width="4.0221" stroke-miterlimit="10" d="M327.206,314.377
						c-4.846-4.186-11.361-3.258-13.222,0"/>
				</g>
			</g>
			<path d="M353.248,194.801l-41.803,2.298c-3.712,0.228-7.212,0.446-10.693,0.928c-5.857,0.815-11.627,2.086-17.146,3.788
				c-6.49,2-11.926,4.343-16.624,7.156c-3.054,1.832-6.23,2.804-9.452,2.988c-0.049,0.395-0.073,0.776-0.117,1.166
				c-0.044-0.39-0.069-0.771-0.118-1.166c-3.221-0.184-6.397-1.156-9.456-2.988c-4.694-2.813-10.129-5.155-16.62-7.156
				c-5.519-1.702-11.288-2.973-17.147-3.788c-3.481-0.481-13.539-1.09-14.541-1.142l-37.958-2.084c0,0-1.39,21.289,7.851,36.013
				c0.081,0.184,0.143,0.358,0.226,0.541c1.453,3.208,3.795,6.228,6.103,9.019c2.131,2.568,4.841,4.836,6.967,6.521
				c2.705,2.153,6,3.928,10.065,5.425c4.885,1.802,9.496,2.72,14.099,2.808c1.365,0.027,2.539,0.049,3.714,0.049
				c2.305,0,4.051-0.091,5.651-0.29c2.789-0.354,5.7-1.191,8.906-2.563c7.365-3.152,13.163-7.895,17.739-14.504
				c0.624-0.898,1.134-1.875,1.65-2.853c0.417-0.786,0.839-1.573,1.291-2.337l0.943-1.627c1.026-1.8,2.086-3.661,3.515-5.418
				c1.93-2.369,4.434-3.714,7.12-4.021c2.686,0.307,5.189,1.652,7.114,4.021c1.434,1.758,2.494,3.619,3.521,5.418l0.942,1.627
				c0.452,0.764,0.869,1.551,1.291,2.337c0.516,0.977,1.021,1.954,1.646,2.853c4.575,6.609,10.379,11.352,17.744,14.504
				c3.201,1.372,6.117,2.209,8.906,2.563c1.601,0.199,3.344,0.29,5.651,0.29c1.173,0,2.347-0.022,3.711-0.049
				c4.601-0.088,9.216-1.006,14.102-2.808c4.065-1.498,7.354-3.272,10.065-5.425c2.121-1.684,4.831-3.953,6.962-6.521
				c2.313-2.791,4.649-5.811,6.107-9.019c0.084-0.182,0.143-0.356,0.227-0.541C354.637,216.09,353.248,194.801,353.248,194.801z"/>
			<path fill="none" stroke="#FFFFFF" stroke-width="2.5138" stroke-miterlimit="10" d="M169.32,202.939
				c0,13.406,7.959,34.356,28.069,44.829"/>
			<path fill="none" stroke="#FFFFFF" stroke-width="2.5138" stroke-miterlimit="10" d="M270.88,219.905
				c4.601,11.813,13.354,21.972,24.622,27.863"/>
			<path stroke="#000000" stroke-width="1.2569" stroke-miterlimit="10" d="M305.617,265.799
				c18.996-6.203,40.134-5.624,40.134-5.624L305.617,265.799z"/>
			<path stroke="#000000" stroke-width="1.2569" stroke-miterlimit="10" d="M306.874,271.832
				c19.821-2.528,40.473,2.003,40.473,2.003L306.874,271.832z"/>
			<path stroke="#000000" stroke-width="1.2569" stroke-miterlimit="10" d="M209.465,265.799c-18.994-6.203-40.13-5.624-40.13-5.624
				L209.465,265.799z"/>
			<path stroke="#000000" stroke-width="1.2569" stroke-miterlimit="10" d="M208.211,271.832
				c-19.821-2.528-40.472,2.003-40.472,2.003L208.211,271.832z"/>
		</g>
	</g>
	<g>
		<path fill="#FFFFFF" stroke="#000000" stroke-width="2.5138" stroke-miterlimit="10" d="M168.483,135.282
			c3.817,0.566,9.579,3.232,14.447,7.305c10.124-6.577,17.899-9.443,17.899-9.443s-19.352-18-39.603-16.65
			c-11.251,10.351-9.901,57.154-9.901,57.154c7.969-12.333,18.004-21.433,26.965-27.872
			C175.958,142.73,171.549,138.091,168.483,135.282z"/>
	</g>
	<g>
		<path fill="#FFFFFF" stroke="#000000" stroke-width="2.5138" stroke-miterlimit="10" d="M345.534,137.133
			c-3.834,0.41-9.701,2.841-14.727,6.713c-9.85-6.98-17.504-10.16-17.504-10.16s20.066-17.203,40.244-15.034
			c10.826,10.799,7.58,57.511,7.58,57.511c-7.463-12.648-17.128-22.147-25.813-28.944
			C337.767,144.271,342.36,139.816,345.534,137.133z"/>
	</g>
</g>
</svg>
